<?xml version="1.0" encoding="utf-8"?>
<!-- Generator: Adobe Illustrator 17.1.0, SVG Export Plug-In . SVG Version: 6.00 Build 0)  -->
<!DOCTYPE svg PUBLIC "-//W3C//DTD SVG 1.1//EN" "http://www.w3.org/Graphics/SVG/1.1/DTD/svg11.dtd">
<svg version="1.1" id="Capa_1" xmlns="http://www.w3.org/2000/svg" xmlns:xlink="http://www.w3.org/1999/xlink" x="0px" y="0px"
	 viewBox="0 0 100 100" enable-background="new 0 0 100 100" xml:space="preserve">
<g>
	<path opacity="0.25" fill="#13888D" d="M44.3,64.9C44.3,64.8,44.3,64.8,44.3,64.9c0,0.1,0,0.3,0,0.4c0,10.6,8.3,19.2,18.8,19.7
		c-0.2,0-0.3,0-0.5,0h21.1l0-19c0,0,0,0.1,0,0.1c0-0.3,0-0.5,0-0.8c0-10.5-8.2-19.1-18.6-19.7c0.2,0,0.4,0,0.6,0l-21.4,0V64.9z"/>
	<path opacity="0.25" fill="#AA3E51" d="M64.5,16.8C64.5,16.8,64.5,16.8,64.5,16.8c-0.1,0-0.3,0-0.4,0c-10.6,0-19.2,8.3-19.7,18.8
		c0-0.2,0-0.3,0-0.5l0,21.1h19c0,0-0.1,0-0.1,0c0.3,0,0.5,0,0.8,0c10.5,0,19.1-8.2,19.7-18.6c0,0.2,0,0.4,0,0.6l0-21.4L64.5,16.8z"
		/>
	<path opacity="0.25" fill="#EE2A7B" d="M55.2,36.9C55.2,37,55.2,37,55.2,36.9c0-0.1,0-0.3,0-0.4c0-10.6-8.3-19.2-18.8-19.7
		c0.2,0,0.3,0,0.5,0H15.8l0,19c0,0,0-0.1,0-0.1c0,0.3,0,0.5,0,0.8c0,10.5,8.2,19.1,18.6,19.7c-0.2,0-0.4,0-0.6,0h21.4V36.9z"/>
	<path opacity="0.25" fill="#638DBC" d="M35.1,85C35,85,35,85,35.1,85c0.1,0,0.3,0,0.4,0c10.6,0,19.2-8.3,19.7-18.8
		c0,0.2,0,0.3,0,0.5V45.6h-19c0,0,0.1,0,0.1,0c-0.3,0-0.5,0-0.8,0c-10.5,0-19.1,8.2-19.7,18.6c0-0.2,0-0.4,0-0.6l0,21.4L35.1,85z"/>
	<path opacity="0.25" fill="#7C49B7" d="M55.9,64.1C55.9,64,55.9,64,55.9,64.1c0.1,0.1,0.2,0.2,0.3,0.3c7.5,7.5,19.5,7.7,27.2,0.6
		c-0.1,0.1-0.2,0.2-0.3,0.4L98,50.4L84.6,37c0,0,0.1,0.1,0.1,0.1c-0.2-0.2-0.4-0.4-0.6-0.6c-7.4-7.4-19.3-7.7-27.1-0.7
		c0.1-0.2,0.3-0.3,0.4-0.5L42.3,50.4L55.9,64.1z"/>
	<path opacity="0.25" fill="#F7728A" d="M36.2,15.8C36.2,15.8,36.2,15.8,36.2,15.8c-0.1,0.1-0.2,0.2-0.3,0.3
		c-7.5,7.5-7.7,19.5-0.6,27.2c-0.1-0.1-0.2-0.2-0.4-0.3l14.9,14.9l13.5-13.5c0,0-0.1,0.1-0.1,0.1c0.2-0.2,0.4-0.4,0.6-0.6
		c7.4-7.4,7.7-19.3,0.7-27.1c0.2,0.1,0.3,0.3,0.5,0.4L49.8,2.2L36.2,15.8z"/>
	<path opacity="0.25" fill="#DA1C5C" d="M43.6,36.9C43.6,36.9,43.7,36.9,43.6,36.9c-0.1-0.1-0.2-0.2-0.3-0.3
		c-7.5-7.5-19.5-7.7-27.2-0.6c0.1-0.1,0.2-0.2,0.3-0.4L1.5,50.5L15,63.9c0,0-0.1-0.1-0.1-0.1c0.2,0.2,0.4,0.4,0.6,0.6
		c7.4,7.4,19.3,7.7,27.1,0.7c-0.1,0.2-0.3,0.3-0.4,0.5l15.1-15.1L43.6,36.9z"/>
	<path opacity="0.25" fill="#19B5BC" d="M63.4,85.1C63.3,85.1,63.3,85.1,63.4,85.1c0.1-0.1,0.2-0.2,0.3-0.3
		c7.5-7.5,7.7-19.5,0.6-27.2c0.1,0.1,0.2,0.2,0.4,0.3L49.7,43L36.3,56.4c0,0,0.1-0.1,0.1-0.1c-0.2,0.2-0.4,0.4-0.6,0.6
		c-7.4,7.4-7.7,19.3-0.7,27.1c-0.2-0.1-0.3-0.3-0.5-0.4l15.1,15.1L63.4,85.1z"/>
</g>
</svg>
